<svg xmlns="http://www.w3.org/2000/svg" version="1.1" xmlns:xlink="http://www.w3.org/1999/xlink" xmlns:svgjs="http://svgjs.dev/svgjs" width="1000" height="1000" viewBox="0 0 1000 1000"><rect width="1000" height="1000" fill="#ffffff"></rect><g transform="matrix(0.7,0,0,0.7,150.00040338463458,106.25)"><svg viewBox="0 0 320 360" data-background-color="#ffffff" preserveAspectRatio="xMidYMid meet" height="1125" width="1000" xmlns="http://www.w3.org/2000/svg" xmlns:xlink="http://www.w3.org/1999/xlink"><defs></defs><g id="tight-bounds" transform="matrix(1,0,0,1,0.00018440440442191175,0)"><svg viewBox="0 0 320 360" height="360" width="320"><g><svg></svg></g><g><svg viewBox="0 0 320 360" height="360" width="320"><g><path d="M294.684 112.125c-8.775-10.699-25.381-16.201-43-22.006-7.56-2.498-15.357-5.097-22.985-8.235-7.695-3.173-15.256-7.257-22.613-11.172-14.952-8.033-30.41-16.336-46.105-16.336-15.661 0-31.119 8.303-46.071 16.336-7.358 3.949-14.952 8.033-22.648 11.205-7.594 3.139-15.425 5.704-22.985 8.236-17.618 5.839-34.224 11.341-42.999 22.006-11.712 14.277-11.442 35.439-11.172 57.817 0.034 3.375 0.068 6.717 0.067 10.024 0 3.308-0.034 6.649-0.101 10.024-0.27 22.411-0.54 43.54 11.172 57.851 8.775 10.666 25.381 16.167 42.966 22.006 7.56 2.498 15.357 5.097 23.019 8.235 7.695 3.173 15.256 7.223 22.579 11.172 14.986 8.067 30.444 16.37 46.105 16.37 15.695 0 31.153-8.303 46.105-16.336 7.358-3.949 14.918-8.033 22.614-11.172 7.594-3.139 15.357-5.704 22.884-8.202 17.72-5.873 34.326-11.374 43.101-22.039 11.712-14.277 11.442-35.439 11.171-57.817-0.034-3.409-0.101-6.75-0.101-10.058 0-3.308 0.034-6.649 0.101-9.991 0.371-22.479 0.641-43.641-11.104-57.918zM305.552 103.215c-15.728-19.171-45.801-23.727-71.486-34.326-22.985-9.45-46.375-28.588-74.051-28.587-27.676 0-51.066 19.137-74.052 28.587-25.719 10.598-55.758 15.155-71.486 34.326-17.078 20.791-14.311 50.121-14.311 76.785 0 26.63-2.768 55.994 14.277 76.785 15.728 19.171 45.801 23.727 71.487 34.326 22.985 9.484 46.375 28.588 74.051 28.587 27.676 0 51.066-19.103 74.051-28.587 25.719-10.598 55.758-15.155 71.486-34.326 17.045-20.791 14.277-50.121 14.277-76.785 0.068-26.664 2.835-55.994-14.243-76.785zM309.872 189.923c0.304 23.221 0.574 45.059-12.083 60.483-9.518 11.577-26.664 17.281-44.822 23.289-7.56 2.498-15.29 5.063-22.715 8.134-7.493 3.071-14.952 7.088-22.175 10.969-15.458 8.303-31.355 16.842-48.062 16.842-16.707 0-32.604-8.539-47.995-16.808-7.257-3.915-14.75-7.932-22.243-11.003-7.527-3.105-15.256-5.67-22.748-8.134-18.192-6.008-35.338-11.712-44.823-23.289-12.623-15.391-12.353-37.262-12.083-60.415 0.034-3.375 0.101-6.683 0.101-9.991 0-3.308-0.034-6.615-0.067-9.991-0.304-23.154-0.574-45.025 12.083-60.415 9.518-11.577 26.664-17.247 44.822-23.289 7.527-2.498 15.256-5.063 22.749-8.134 7.493-3.105 14.986-7.122 22.242-11.003 15.391-8.269 31.322-16.842 47.995-16.842 16.673 0 32.604 8.539 47.995 16.808 7.257 3.915 14.75 7.932 22.243 11.003 7.493 3.105 15.256 5.637 22.715 8.134 18.158 6.008 35.338 11.712 44.822 23.289 12.657 15.425 12.387 37.262 12.083 60.416-0.034 3.409-0.101 6.717-0.101 9.99 0 3.308 0.034 6.615 0.067 9.957z" fill="#1b30f1" data-fill-palette-color="tertiary"></path></g><g transform="matrix(1,0,0,1,64,139.62604796200876)"><svg viewBox="0 0 192 80.7479040759825" height="80.7479040759825" width="192"><g><svg viewBox="0 0 192 80.7479040759825" height="80.7479040759825" width="192"><g transform="matrix(1,0,0,1,0,59.414570742649175)"><svg viewBox="0 0 192 21.333333333333332" height="21.333333333333332" width="192"><g><svg viewBox="0 0 192 21.333333333333332" height="21.333333333333332" width="192"><g><svg viewBox="0 0 192 21.333333333333332" height="21.333333333333332" width="192"><g transform="matrix(1,0,0,1,0,0)"><svg width="192" viewBox="0 -50 393.73 43.75" height="21.333333333333332" data-palette-color="#ffffff"><path d="M37.5-6.25L12.5-6.25 12.5-12.5 6.25-12.5 6.25-18.75 0-18.75 0-37.5 6.25-37.5 6.25-43.75 12.5-43.75 12.5-50 37.5-50 37.5-43.75 43.75-43.75 43.75-37.5 31.25-37.5 31.25-43.75 18.75-43.75 18.75-37.5 12.5-37.5 12.5-18.75 18.75-18.75 18.75-12.5 31.25-12.5 31.25-18.75 43.75-18.75 43.75-12.5 37.5-12.5 37.5-6.25ZM81.25-6.25L68.75-6.25 68.75-25 62.5-25 62.5-31.25 56.25-31.25 56.25-50 68.75-50 68.75-31.25 81.25-31.25 81.25-50 93.75-50 93.75-31.25 87.5-31.25 87.5-25 81.25-25 81.25-6.25ZM137.5-6.25L100-6.25 100-50 137.5-50 137.5-43.75 143.75-43.75 143.75-31.25 137.5-31.25 137.5-25 143.75-25 143.75-12.5 137.5-12.5 137.5-6.25ZM112.5-43.75L112.5-31.25 131.25-31.25 131.25-43.75 112.5-43.75ZM112.5-25L112.5-12.5 131.25-12.5 131.25-25 112.5-25ZM193.74-6.25L149.99-6.25 149.99-50 193.74-50 193.74-43.75 162.49-43.75 162.49-31.25 187.49-31.25 187.49-25 162.49-25 162.49-12.5 193.74-12.5 193.74-6.25ZM212.49-6.25L199.99-6.25 199.99-50 237.49-50 237.49-43.75 243.74-43.75 243.74-25 231.24-25 231.24-18.75 237.49-18.75 237.49-12.5 243.74-12.5 243.74-6.25 224.99-6.25 224.99-12.5 218.74-12.5 218.74-18.75 212.49-18.75 212.49-6.25ZM212.49-43.75L212.49-25 224.99-25 224.99-31.25 231.24-31.25 231.24-43.75 212.49-43.75ZM293.74-6.25L256.24-6.25 256.24-50 268.74-50 268.74-12.5 293.74-12.5 293.74-6.25ZM312.49-6.25L299.99-6.25 299.99-37.5 306.24-37.5 306.24-43.75 312.49-43.75 312.49-50 331.24-50 331.24-43.75 337.49-43.75 337.49-37.5 343.74-37.5 343.74-6.25 331.24-6.25 331.24-18.75 312.49-18.75 312.49-6.25ZM312.49-37.5L312.49-25 331.24-25 331.24-37.5 324.99-37.5 324.99-43.75 318.74-43.75 318.74-37.5 312.49-37.5ZM387.48-6.25L349.98-6.25 349.98-50 387.48-50 387.48-43.75 393.73-43.75 393.73-31.25 387.48-31.25 387.48-25 393.73-25 393.73-12.5 387.48-12.5 387.48-6.25ZM362.48-43.75L362.48-31.25 381.23-31.25 381.23-43.75 362.48-43.75ZM362.48-25L362.48-12.5 381.23-12.5 381.23-25 362.48-25Z" opacity="1" transform="matrix(1,0,0,1,0,0)" fill="#ffffff" class="undefined-text-0" data-fill-palette-color="quaternary" id="text-0"></path></svg></g></svg></g></svg></g></svg></g><g transform="matrix(1,0,0,1,71.32900262867541,0)"><svg viewBox="0 0 49.34199474264918 49.34199474264918" height="49.34199474264918" width="49.34199474264918"><g><svg></svg></g><g id="icon-0"><svg viewBox="0 0 49.34199474264918 49.34199474264918" height="49.34199474264918" width="49.34199474264918"><g><path d="M0 24.671c0-13.625 11.046-24.671 24.671-24.671 13.625 0 24.671 11.046 24.671 24.671 0 13.625-11.046 24.671-24.671 24.671-13.625 0-24.671-11.046-24.671-24.671zM24.671 47.418c12.563 0 22.747-10.184 22.747-22.747 0-12.563-10.184-22.747-22.747-22.747-12.563 0-22.747 10.184-22.747 22.747 0 12.563 10.184 22.747 22.747 22.747z" data-fill-palette-color="quaternary" fill="#ffffff" stroke="transparent"></path></g><g transform="matrix(1,0,0,1,15.335674182302162,12.781466820429856)"><svg viewBox="0 0 18.670646378044854 23.779061101789466" height="23.779061101789466" width="18.670646378044854"><g><svg xmlns="http://www.w3.org/2000/svg" xmlns:xlink="http://www.w3.org/1999/xlink" version="1.1" x="0" y="0" viewBox="10.844 1.032202995274986 76.82000000000002 97.8384699089757" enable-background="new 0 0 100 100" xml:space="preserve" height="23.779061101789466" width="18.670646378044854" class="icon-fi-0" data-fill-palette-color="quaternary" id="fi-0"><g fill="#ffffff" data-fill-palette-color="quaternary"><path fill="#ffffff" d="M15.395 28.561c0.473 0.25 0.826 0.735 0.826 1.455v8.309c0 0.719-0.354 1.204-0.826 1.453v19.397c0.473 0.25 0.826 0.732 0.826 1.453v8.307c0 0.721-0.354 1.205-0.826 1.453v0.717c0 1.492 1.275 3.359 2.863 4.033l26.397 11.156c1.433 0.602 2.221-0.035 2.221-1.184v-43.83c0-1.494-1.274-3.361-2.864-4.032L17.615 26.092c-1.432-0.605-2.221 0.035-2.221 1.184V28.561L15.395 28.561zM21.998 83.244l-4.674 1.975c-0.11 0.045-0.215 0.062-0.305 0.055-0.092 0.008-0.195-0.01-0.305-0.055L11.51 83.02c-0.265-0.111-0.492-0.361-0.599-0.629-0.044-0.07-0.067-0.158-0.067-0.262v-8.643l0.006-0.129V20.646c0-0.598 0.127-1.112 0.355-1.529 0.643-1.718 2.092-3.339 3.778-4.051L47.359 1.387c0.761-0.321 1.473-0.417 2.084-0.317 0.521-0.017 1.1 0.095 1.709 0.353l32.375 13.679c1.662 0.702 3.094 2.287 3.752 3.978 0.24 0.423 0.373 0.95 0.373 1.566v0.099l0.008 0.235v52.471l0.004 8.709c0 0.145-0.021 0.227-0.057 0.293-0.104 0.275-0.336 0.537-0.607 0.652l-5.207 2.199c-0.111 0.047-0.211 0.064-0.305 0.055-0.09 0.01-0.193-0.008-0.303-0.055l-4.779-2.018-20.83 8.797-0.002 3.586c0 0.143-0.02 0.225-0.055 0.293-0.104 0.277-0.338 0.537-0.607 0.654l-5.205 2.197c-0.111 0.047-0.213 0.064-0.305 0.055-0.092 0.01-0.195-0.008-0.305-0.055l-5.205-2.197c-0.264-0.113-0.492-0.363-0.6-0.631-0.043-0.07-0.066-0.156-0.066-0.264v-3.51L21.998 83.244 21.998 83.244zM19.156 55.303c0.5 2.16 2.178 3.576 3.748 3.164 1.57-0.41 2.438-2.496 1.938-4.656s-2.178-3.578-3.746-3.166C19.523 51.057 18.656 53.143 19.156 55.303L19.156 55.303zM20.93 48.917c0.694-1.844 1.977-3.221 3.652-3.661 3.196-0.838 6.609 2.046 7.625 6.444 1.017 4.398-0.75 8.641-3.944 9.479-1.53 0.4-3.109-0.049-4.45-1.113-0.152 0.068-0.31 0.123-0.473 0.166-2.261 0.592-4.678-1.449-5.398-4.561-0.719-3.111 0.531-6.116 2.793-6.708L20.93 48.917 20.93 48.917zM34.339 65.76v-7.832c0-2.084 1.165-4.203 2.832-5.584 0.009-1.666 0.815-3.08 2.079-3.411 1.571-0.412 3.248 1.006 3.748 3.167 0.5 2.16-0.368 4.246-1.938 4.66-0.684 0.178-1.387 0.012-2.006-0.412-0.365 0.531-0.584 1.115-0.584 1.58v7.832C38.471 68.512 34.339 68.512 34.339 65.76L34.339 65.76z" data-fill-palette-color="quaternary"></path></g></svg></g></svg></g></svg></g></svg></g><g></g></svg></g></svg></g></svg></g></svg><rect width="320" height="360" fill="none" stroke="none" visibility="hidden"></rect></g></svg></g></svg>