<svg xmlns="http://www.w3.org/2000/svg" version="1.1" xmlns:xlink="http://www.w3.org/1999/xlink" xmlns:svgjs="http://svgjs.dev/svgjs" width="1000" height="1000" viewBox="0 0 1000 1000"><rect width="1000" height="1000" fill="#ffffff"></rect><g transform="matrix(0.7,0,0,0.7,149.57575757575756,371.6033922994121)"><svg viewBox="0 0 396 146" data-background-color="#ffffff" preserveAspectRatio="xMidYMid meet" height="368" width="1000" xmlns="http://www.w3.org/2000/svg" xmlns:xlink="http://www.w3.org/1999/xlink"><defs></defs><g id="tight-bounds" transform="matrix(1,0,0,1,0.2400000000000091,-0.2286307287040188)"><svg viewBox="0 0 395.52 146.45726145740804" height="146.45726145740804" width="395.52"><g><svg viewBox="0 0 395.52 146.45726145740804" height="146.45726145740804" width="395.52"><g transform="matrix(1,0,0,1,0,107.46233187994325)"><svg viewBox="0 0 395.52 38.99492957746479" height="38.99492957746479" width="395.52"><g><svg viewBox="0 0 395.52 38.99492957746479" height="38.99492957746479" width="395.52"><g><svg viewBox="0 0 395.52 38.99492957746479" height="38.99492957746479" width="395.52"><g transform="matrix(1,0,0,1,0,0)"><svg width="395.52" viewBox="0 -50 443.7300109863281 43.75" height="38.99492957746479" data-palette-color="#1b30f1"><g class="undefined-text-0" data-fill-palette-color="primary" id="text-0"><path d="M37.5-6.25L12.5-6.25 12.5-12.5 6.25-12.5 6.25-18.75 0-18.75 0-37.5 6.25-37.5 6.25-43.75 12.5-43.75 12.5-50 37.5-50 37.5-43.75 43.75-43.75 43.75-37.5 31.25-37.5 31.25-43.75 18.75-43.75 18.75-37.5 12.5-37.5 12.5-18.75 18.75-18.75 18.75-12.5 31.25-12.5 31.25-18.75 43.75-18.75 43.75-12.5 37.5-12.5 37.5-6.25ZM81.25-6.25L68.75-6.25 68.75-25 62.5-25 62.5-31.25 56.25-31.25 56.25-50 68.75-50 68.75-31.25 81.25-31.25 81.25-50 93.75-50 93.75-31.25 87.5-31.25 87.5-25 81.25-25 81.25-6.25ZM137.5-6.25L100-6.25 100-50 137.5-50 137.5-43.75 143.75-43.75 143.75-31.25 137.5-31.25 137.5-25 143.75-25 143.75-12.5 137.5-12.5 137.5-6.25ZM112.5-43.75L112.5-31.25 131.25-31.25 131.25-43.75 112.5-43.75ZM112.5-25L112.5-12.5 131.25-12.5 131.25-25 112.5-25ZM193.74-6.25L149.99-6.25 149.99-50 193.74-50 193.74-43.75 162.49-43.75 162.49-31.25 187.49-31.25 187.49-25 162.49-25 162.49-12.5 193.74-12.5 193.74-6.25ZM212.49-6.25L199.99-6.25 199.99-50 237.49-50 237.49-43.75 243.74-43.75 243.74-25 231.24-25 231.24-18.75 237.49-18.75 237.49-12.5 243.74-12.5 243.74-6.25 224.99-6.25 224.99-12.5 218.74-12.5 218.74-18.75 212.49-18.75 212.49-6.25ZM212.49-43.75L212.49-25 224.99-25 224.99-31.25 231.24-31.25 231.24-43.75 212.49-43.75ZM287.49-6.25L256.24-6.25 256.24-12.5 249.99-12.5 249.99-18.75 262.49-18.75 262.49-12.5 281.24-12.5 281.24-25 256.24-25 256.24-31.25 249.99-31.25 249.99-43.75 256.24-43.75 256.24-50 287.49-50 287.49-43.75 293.74-43.75 293.74-37.5 281.24-37.5 281.24-43.75 262.49-43.75 262.49-31.25 287.49-31.25 287.49-25 293.74-25 293.74-12.5 287.49-12.5 287.49-6.25ZM312.49-6.25L299.99-6.25 299.99-37.5 306.24-37.5 306.24-43.75 312.49-43.75 312.49-50 331.24-50 331.24-43.75 337.49-43.75 337.49-37.5 343.74-37.5 343.74-6.25 331.24-6.25 331.24-18.75 312.49-18.75 312.49-6.25ZM312.49-37.5L312.49-25 331.24-25 331.24-37.5 324.99-37.5 324.99-43.75 318.74-43.75 318.74-37.5 312.49-37.5ZM362.48-6.25L349.98-6.25 349.98-50 393.73-50 393.73-43.75 362.48-43.75 362.48-31.25 387.48-31.25 387.48-25 362.48-25 362.48-6.25ZM443.73-6.25L399.98-6.25 399.98-50 443.73-50 443.73-43.75 412.48-43.75 412.48-31.25 437.48-31.25 437.48-25 412.48-25 412.48-12.5 443.73-12.5 443.73-6.25Z" fill="#1b30f1" data-fill-palette-color="primary"></path></g></svg></g></svg></g></svg></g></svg></g><g transform="matrix(1,0,0,1,153.23460105495795,0)"><svg viewBox="0 0 89.0507978900841 89.0507978900841" height="89.0507978900841" width="89.0507978900841"><g><svg></svg></g><g id="icon-0"><svg viewBox="0 0 89.0507978900841 89.0507978900841" height="89.0507978900841" width="89.0507978900841"><g><path d="M0 44.525c0-24.591 19.935-44.525 44.525-44.525 24.591 0 44.525 19.935 44.526 44.525 0 24.591-19.935 44.525-44.526 44.526-24.591 0-44.525-19.935-44.525-44.526zM44.525 85.534c22.649 0 41.009-18.36 41.009-41.009 0-22.649-18.36-41.009-41.009-41.008-22.649 0-41.009 18.36-41.008 41.008 0 22.649 18.36 41.009 41.008 41.009z" data-fill-palette-color="accent" fill="#0718c4" stroke="transparent"></path></g><g transform="matrix(1,0,0,1,28.542721702331427,24.1697548479277)"><svg viewBox="0 0 31.965354485421248 40.7112881942287" height="40.7112881942287" width="31.965354485421248"><g><svg xmlns="http://www.w3.org/2000/svg" xmlns:xlink="http://www.w3.org/1999/xlink" version="1.1" x="0" y="0" viewBox="10.843999862670898 1.032202959060669 76.81999969482422 97.83846282958984" enable-background="new 0 0 100 100" xml:space="preserve" height="40.7112881942287" width="31.965354485421248" class="icon-x-0" data-fill-palette-color="accent" id="x-0"><g fill="#0718c4" data-fill-palette-color="accent"><path fill="#0718c4" d="M15.395 28.561c0.473 0.25 0.826 0.735 0.826 1.455v8.309c0 0.719-0.354 1.204-0.826 1.453v19.397c0.473 0.25 0.826 0.732 0.826 1.453v8.307c0 0.721-0.354 1.205-0.826 1.453v0.717c0 1.492 1.275 3.359 2.863 4.033l26.397 11.156c1.433 0.602 2.221-0.035 2.221-1.184v-43.83c0-1.494-1.274-3.361-2.864-4.032L17.615 26.092c-1.432-0.605-2.221 0.035-2.221 1.184V28.561L15.395 28.561zM21.998 83.244l-4.674 1.975c-0.11 0.045-0.215 0.062-0.305 0.055-0.092 0.008-0.195-0.01-0.305-0.055L11.51 83.02c-0.265-0.111-0.492-0.361-0.599-0.629-0.044-0.07-0.067-0.158-0.067-0.262v-8.643l0.006-0.129V20.646c0-0.598 0.127-1.112 0.355-1.529 0.643-1.718 2.092-3.339 3.778-4.051L47.359 1.387c0.761-0.321 1.473-0.417 2.084-0.317 0.521-0.017 1.1 0.095 1.709 0.353l32.375 13.679c1.662 0.702 3.094 2.287 3.752 3.978 0.24 0.423 0.373 0.95 0.373 1.566v0.099l0.008 0.235v52.471l0.004 8.709c0 0.145-0.021 0.227-0.057 0.293-0.104 0.275-0.336 0.537-0.607 0.652l-5.207 2.199c-0.111 0.047-0.211 0.064-0.305 0.055-0.09 0.01-0.193-0.008-0.303-0.055l-4.779-2.018-20.83 8.797-0.002 3.586c0 0.143-0.02 0.225-0.055 0.293-0.104 0.277-0.338 0.537-0.607 0.654l-5.205 2.197c-0.111 0.047-0.213 0.064-0.305 0.055-0.092 0.01-0.195-0.008-0.305-0.055l-5.205-2.197c-0.264-0.113-0.492-0.363-0.6-0.631-0.043-0.07-0.066-0.156-0.066-0.264v-3.51L21.998 83.244 21.998 83.244zM19.156 55.303c0.5 2.16 2.178 3.576 3.748 3.164 1.57-0.41 2.438-2.496 1.938-4.656s-2.178-3.578-3.746-3.166C19.523 51.057 18.656 53.143 19.156 55.303L19.156 55.303zM20.93 48.917c0.694-1.844 1.977-3.221 3.652-3.661 3.196-0.838 6.609 2.046 7.625 6.444 1.017 4.398-0.75 8.641-3.944 9.479-1.53 0.4-3.109-0.049-4.45-1.113-0.152 0.068-0.31 0.123-0.473 0.166-2.261 0.592-4.678-1.449-5.398-4.561-0.719-3.111 0.531-6.116 2.793-6.708L20.93 48.917 20.93 48.917zM34.339 65.76v-7.832c0-2.084 1.165-4.203 2.832-5.584 0.009-1.666 0.815-3.08 2.079-3.411 1.571-0.412 3.248 1.006 3.748 3.167 0.5 2.16-0.368 4.246-1.938 4.66-0.684 0.178-1.387 0.012-2.006-0.412-0.365 0.531-0.584 1.115-0.584 1.58v7.832C38.471 68.512 34.339 68.512 34.339 65.76L34.339 65.76z" data-fill-palette-color="accent"></path></g></svg></g></svg></g></svg></g></svg></g><g></g></svg></g></svg><rect width="395.52" height="146.45726145740804" fill="none" stroke="none" visibility="hidden"></rect></g></svg></g></svg>